<svg id="Titre" xmlns="http://www.w3.org/2000/svg" width="64.000000px" height="64.000000px" viewBox="0 0 64.000000 64.000000">
    <title>ICON_TOOLBAR_ATC_PANEL</title>
    <g id="HIGHLIGHT">
        <g fill="#000000" stroke="none">
            <path d="M30 4c-.552 0-1 .448-1 1v3.07c-3.06.44-5.5 2.88-5.94 5.93H20c-.552 0-1 .448-1 1s.448 1 1 1h2v2h-2c-.552 0-1 .448-1 1s.448 1 1 1h2.2l-4.16 33.88c-.07.59.39 1.12.99 1.12h26.34c.6 0 1.06-.53.99-1.12L42 20h2.2c.552 0 1-.448 1-1s-.448-1-1-1h-2v-2h2c.552 0 1-.448 1-1s-.448-1-1-1h-3.06c-.44-3.05-2.88-5.49-5.94-5.93V5c0-.552-.448-1-1-1zm1 6.06c2.2.46 3.94 2.2 4.4 4.4h-8.8c.46-2.2 2.2-3.94 4.4-4.4zM26 16h12v2H26zm.26 4h11.48l1.6 13H24.66zm-1.84 15h15.16l1.35 11H23.07zm-1.6 13h18.36l.74 6H22.08z"/>
        </g>
    </g>
</svg>
